<?xml version="1.0" encoding="UTF-8" standalone="no"?>
<!DOCTYPE svg PUBLIC "-//W3C//DTD SVG 1.1//EN" "http://www.w3.org/Graphics/SVG/1.1/DTD/svg11.dtd">
<svg version="1.1" xmlns="http://www.w3.org/2000/svg" xmlns:xlink="http://www.w3.org/1999/xlink" preserveAspectRatio="xMidYMid meet" viewBox="0 0 500 500" width="500" height="500">
	<link xmlns="http://www.w3.org/1999/xhtml" rel="stylesheet" href="../stylesheets/mapstyle.css" type="text/css"/>
	<defs>
		<path id="pin" d="M9.2 0.03L9.54 0.06L9.88 0.1L10.21 0.16L10.54 0.22L10.87 0.3L11.19 0.39L11.5 0.5L11.81 0.61L12.11 0.73L12.41 0.86L12.7 1.01L12.98 1.16L13.25 1.32L13.52 1.49L13.78 1.67L14.03 1.86L14.28 2.06L14.51 2.27L14.74 2.48L14.95 2.7L15.16 2.93L15.36 3.17L15.55 3.41L15.73 3.66L15.89 3.92L16.05 4.18L16.2 4.45L16.33 4.73L16.46 5.01L16.57 5.29L16.67 5.58L16.75 5.88L16.83 6.18L16.89 6.49L16.94 6.79L16.97 7.11L16.99 7.42L17 7.74L16.99 8.06L16.97 8.38L16.94 8.69L16.89 9L16.83 9.31L16.75 9.62L16.67 9.93L16.57 10.24L16.46 10.55L16.33 10.86L16.2 11.16L16.05 11.47L15.89 11.79L15.73 12.1L15.55 12.41L15.36 12.73L15.16 13.05L14.95 13.37L14.74 13.7L14.51 14.03L14.28 14.36L14.03 14.7L13.78 15.05L13.52 15.4L13.25 15.75L12.98 16.11L12.7 16.48L12.41 16.85L12.11 17.23L11.81 17.62L11.5 18.02L11.19 18.42L10.87 18.84L10.54 19.26L10.21 19.69L9.88 20.13L9.54 20.58L9.2 21.04L8.85 21.52L8.5 22L8.15 21.52L7.8 21.04L7.46 20.58L7.12 20.13L6.79 19.69L6.46 19.26L6.13 18.84L5.81 18.42L5.5 18.02L5.19 17.62L4.89 17.23L4.59 16.85L4.3 16.48L4.02 16.11L3.75 15.75L3.48 15.4L3.22 15.05L2.97 14.7L2.72 14.36L2.49 14.03L2.26 13.7L2.05 13.37L1.84 13.05L1.64 12.73L1.45 12.41L1.27 12.1L1.11 11.79L0.95 11.47L0.8 11.16L0.67 10.86L0.54 10.55L0.43 10.24L0.33 9.93L0.25 9.62L0.17 9.31L0.11 9L0.06 8.69L0.03 8.38L0.01 8.06L0 7.74L0.01 7.42L0.03 7.11L0.06 6.79L0.11 6.49L0.17 6.18L0.25 5.88L0.33 5.58L0.43 5.29L0.54 5.01L0.67 4.73L0.8 4.45L0.95 4.18L1.11 3.92L1.27 3.66L1.45 3.41L1.64 3.17L1.84 2.93L2.05 2.7L2.26 2.48L2.49 2.27L2.72 2.06L2.97 1.86L3.22 1.67L3.48 1.49L3.75 1.32L4.02 1.16L4.3 1.01L4.59 0.86L4.89 0.73L5.19 0.61L5.5 0.5L5.81 0.39L6.13 0.3L6.46 0.22L6.79 0.16L7.12 0.1L7.46 0.06L7.8 0.03L8.15 0.01L8.5 0L8.85 0.01L9.2 0.03ZM8.17 3.68L8.01 3.69L7.85 3.71L7.69 3.74L7.53 3.77L7.38 3.81L7.23 3.85L7.08 3.9L6.93 3.95L6.79 4.01L6.65 4.08L6.51 4.14L6.38 4.22L6.25 4.29L6.12 4.37L6 4.46L5.88 4.55L5.76 4.64L5.65 4.74L5.55 4.84L5.44 4.95L5.34 5.06L5.25 5.17L5.16 5.28L5.08 5.4L5 5.52L4.92 5.65L4.85 5.78L4.79 5.91L4.73 6.04L4.68 6.17L4.63 6.31L4.59 6.45L4.56 6.59L4.53 6.74L4.5 6.88L4.49 7.03L4.48 7.18L4.47 7.33L4.48 7.48L4.49 7.63L4.5 7.78L4.53 7.93L4.56 8.07L4.59 8.21L4.63 8.35L4.68 8.49L4.73 8.63L4.79 8.76L4.85 8.89L4.92 9.02L5 9.14L5.08 9.26L5.16 9.38L5.25 9.5L5.34 9.61L5.44 9.72L5.55 9.82L5.65 9.93L5.76 10.02L5.88 10.12L6 10.21L6.12 10.29L6.25 10.37L6.38 10.45L6.51 10.52L6.65 10.59L6.79 10.65L6.93 10.71L7.08 10.77L7.23 10.81L7.38 10.86L7.53 10.89L7.69 10.93L7.85 10.95L8.01 10.97L8.17 10.99L8.33 11L8.5 11L8.67 11L8.83 10.99L8.99 10.97L9.15 10.95L9.31 10.93L9.47 10.89L9.62 10.86L9.77 10.81L9.92 10.77L10.07 10.71L10.21 10.65L10.35 10.59L10.49 10.52L10.62 10.45L10.75 10.37L10.88 10.29L11 10.21L11.12 10.12L11.24 10.02L11.35 9.93L11.45 9.82L11.56 9.72L11.66 9.61L11.75 9.5L11.84 9.38L11.92 9.26L12 9.14L12.08 9.02L12.15 8.89L12.21 8.76L12.27 8.63L12.32 8.49L12.37 8.35L12.41 8.21L12.44 8.07L12.47 7.93L12.5 7.78L12.51 7.63L12.52 7.48L12.53 7.33L12.52 7.18L12.51 7.03L12.5 6.88L12.47 6.74L12.44 6.59L12.41 6.45L12.37 6.31L12.32 6.17L12.27 6.04L12.21 5.91L12.15 5.78L12.08 5.65L12 5.52L11.92 5.4L11.84 5.28L11.75 5.17L11.66 5.06L11.56 4.95L11.45 4.84L11.35 4.74L11.24 4.64L11.12 4.55L11 4.46L10.88 4.37L10.75 4.29L10.62 4.22L10.49 4.14L10.35 4.08L10.21 4.01L10.07 3.95L9.92 3.9L9.77 3.85L9.62 3.81L9.47 3.77L9.31 3.74L9.15 3.71L8.99 3.69L8.83 3.68L8.67 3.67L8.5 3.67L8.33 3.67L8.17 3.68Z"></path>
	</defs>
	<g id="map">
		<path class="land" d="M499.99 3.49L499.98 5.4L499.95 7.31L499.91 9.23L499.87 11.14L499.81 13.06L499.74 14.97L499.66 16.88L499.57 18.79L499.46 20.7L499.35 22.61L499.23 24.52L499.1 26.43L498.95 28.34L498.8 30.24L498.63 32.15L498.45 34.05L498.27 35.96L498.07 37.86L497.86 39.76L497.64 41.66L497.41 43.56L497.17 45.46L496.92 47.35L496.66 49.25L496.39 51.14L496.11 53.03L495.81 54.92L495.51 56.81L495.2 58.7L494.87 60.58L494.53 62.47L494.19 64.35L493.83 66.23L493.47 68.11L493.09 69.98L492.7 71.86L492.3 73.73L491.89 75.6L491.47 77.47L490.81 80.36L488.98 88.21L488.71 89.39L488.44 90.57L488.18 91.76L487.93 92.94L487.68 94.13L487.44 95.32L487.2 96.51L486.97 97.7L486.74 98.89L486.53 100.09L486.31 101.28L486.11 102.47L485.91 103.67L485.71 104.87L485.52 106.07L485.34 107.26L485.17 108.46L485 109.66L484.83 110.87L484.68 112.07L484.52 113.27L484.38 114.47L484.24 115.68L484.11 116.88L483.98 118.09L483.86 119.3L483.74 120.5L483.63 121.71L483.53 122.92L483.43 124.13L483.34 125.34L483.26 126.55L483.18 127.76L483.11 128.97L483.04 130.18L482.98 131.39L482.93 132.6L482.88 133.82L482.84 135.03L482.81 136.24L482.25 157.22L482.21 158.85L482.18 160.48L482.16 162.11L482.14 163.74L482.13 165.36L482.13 166.99L482.14 168.62L482.16 170.25L482.18 171.88L482.21 173.51L482.25 175.13L482.3 176.76L482.35 178.39L482.42 180.02L482.49 181.64L482.56 183.27L482.65 184.89L482.74 186.52L482.85 188.14L482.96 189.77L483.07 191.39L483.2 193.01L483.33 194.64L483.47 196.26L483.62 197.88L483.78 199.5L483.94 201.12L484.11 202.74L484.29 204.36L484.48 205.97L484.68 207.59L484.88 209.21L485.09 210.82L485.31 212.44L485.54 214.05L485.77 215.66L486.01 217.27L486.26 218.88L486.52 220.49L486.78 222.1L491.95 252.96L492.12 253.99L492.28 255.01L492.42 256.05L492.56 257.08L492.69 258.11L492.81 259.14L492.91 260.17L493.01 261.21L493.1 262.24L493.18 263.28L493.24 264.31L493.3 265.35L493.35 266.39L493.39 267.42L493.41 268.46L493.43 269.5L493.44 270.54L493.44 271.57L493.42 272.61L493.4 273.65L493.37 274.68L493.33 275.72L493.28 276.75L493.21 277.79L493.14 278.82L493.06 279.86L492.97 280.89L492.87 281.92L492.76 282.96L492.64 283.99L492.5 285.02L492.36 286.05L492.21 287.07L492.05 288.1L491.88 289.13L491.7 290.15L491.51 291.17L491.31 292.19L491.1 293.21L490.88 294.23L484.69 322.15L484.52 322.85L484.34 323.55L484.15 324.24L483.94 324.92L483.71 325.6L483.47 326.27L483.22 326.93L482.95 327.59L482.66 328.24L482.37 328.88L482.05 329.52L481.73 330.15L481.39 330.77L481.04 331.38L480.67 331.98L480.29 332.57L479.9 333.16L479.49 333.73L479.07 334.3L478.64 334.86L478.2 335.4L477.74 335.94L477.27 336.47L476.8 336.98L476.3 337.49L475.8 337.98L475.29 338.47L474.76 338.94L474.23 339.4L473.68 339.85L473.12 340.29L472.55 340.71L471.98 341.13L471.39 341.53L470.79 341.91L470.18 342.29L469.56 342.65L468.94 343L468.3 343.33L467.65 343.65L407.3 372.74L406.94 372.93L406.58 373.12L406.23 373.32L405.89 373.54L405.56 373.76L405.24 374L404.92 374.24L404.62 374.5L404.32 374.76L404.04 375.03L403.76 375.31L403.49 375.6L403.23 375.89L402.98 376.19L402.75 376.5L402.52 376.82L402.3 377.15L402.09 377.48L401.9 377.81L401.71 378.15L401.54 378.5L401.37 378.86L401.22 379.22L401.08 379.58L400.95 379.95L400.83 380.32L400.72 380.7L400.63 381.08L400.54 381.46L400.47 381.85L400.41 382.24L400.37 382.63L400.33 383.02L400.31 383.42L400.3 383.82L400.31 384.22L400.33 384.62L400.36 385.03L400.4 385.43L400.46 385.84L403.48 404.7L403.88 407.57L404.17 410.43L404.36 413.28L404.44 416.11L404.42 418.93L404.29 421.74L404.06 424.52L403.73 427.28L403.31 430.02L402.78 432.73L402.16 435.42L401.45 438.07L400.64 440.69L399.74 443.28L398.75 445.83L397.67 448.33L396.51 450.8L395.26 453.22L393.92 455.6L392.51 457.92L391.01 460.19L389.43 462.41L387.77 464.58L386.04 466.68L384.23 468.73L382.35 470.71L380.39 472.62L378.37 474.47L376.27 476.25L374.11 477.96L371.88 479.59L369.58 481.14L367.22 482.62L364.8 484.01L362.32 485.32L359.78 486.55L357.18 487.68L354.52 488.73L351.81 489.68L349.05 490.53L318.39 499.42L317.58 499.63L316.78 499.79L315.98 499.91L315.18 499.98L314.4 500L313.62 499.99L312.85 499.93L312.09 499.83L311.35 499.69L310.61 499.52L309.89 499.3L309.19 499.05L308.5 498.77L307.83 498.44L307.18 498.09L306.55 497.71L305.94 497.29L305.35 496.85L304.79 496.37L304.25 495.87L303.73 495.34L303.25 494.79L302.79 494.21L302.36 493.61L301.95 492.99L301.59 492.35L301.25 491.69L300.95 491.01L300.68 490.31L300.45 489.6L300.25 488.87L300.1 488.12L299.98 487.37L299.9 486.6L299.87 485.82L299.87 485.04L299.93 484.24L300.02 483.44L300.17 482.63L300.36 481.81L301.66 476.87L302.05 475.34L302.41 473.81L302.74 472.28L303.04 470.75L303.32 469.21L303.56 467.66L303.78 466.12L303.98 464.57L304.14 463.03L304.28 461.48L304.38 459.93L304.47 458.38L304.52 456.82L304.55 455.27L304.54 453.72L304.51 452.17L304.46 450.62L304.37 449.08L304.26 447.53L304.12 445.99L303.96 444.45L303.77 442.91L303.55 441.38L303.3 439.85L303.02 438.32L302.72 436.8L302.39 435.29L302.04 433.78L301.65 432.27L301.24 430.77L300.81 429.28L300.34 427.79L299.85 426.31L299.34 424.84L298.79 423.38L298.22 421.92L297.62 420.48L297 419.04L296.35 417.61L295.67 416.19L288.57 401.66L288.34 401.18L288.12 400.7L287.91 400.22L287.7 399.74L287.51 399.25L287.32 398.76L287.14 398.27L286.96 397.77L286.8 397.28L286.64 396.78L286.49 396.28L286.35 395.78L286.21 395.27L286.08 394.76L285.97 394.26L285.86 393.75L285.75 393.23L285.66 392.72L285.57 392.21L285.49 391.69L285.42 391.18L285.36 390.66L285.3 390.14L285.26 389.62L285.22 389.1L285.19 388.58L285.16 388.06L285.15 387.54L285.14 387.01L285.14 386.49L285.15 385.97L285.17 385.44L285.2 384.92L285.23 384.4L285.27 383.88L285.32 383.35L285.38 382.83L285.45 382.31L285.52 381.79L285.61 381.27L289.83 356.07L290.03 354.63L290.14 353.2L290.16 351.8L290.09 350.43L289.95 349.08L289.72 347.76L289.42 346.48L289.05 345.22L288.61 344.01L288.09 342.83L287.52 341.69L286.88 340.59L286.18 339.53L285.42 338.51L284.62 337.55L283.76 336.63L282.85 335.76L281.9 334.94L280.9 334.17L279.86 333.46L278.79 332.81L277.69 332.21L276.55 331.68L275.38 331.21L274.19 330.8L272.98 330.46L271.74 330.19L270.49 329.98L269.23 329.85L267.95 329.79L266.66 329.81L265.37 329.9L264.08 330.07L262.78 330.32L261.49 330.66L260.2 331.08L258.92 331.58L257.65 332.18L256.4 332.86L255.16 333.63L189.03 377.72L187.26 378.84L185.45 379.86L183.62 380.77L181.77 381.58L179.9 382.29L178.02 382.89L176.12 383.4L174.21 383.81L172.3 384.13L170.39 384.35L168.47 384.48L166.56 384.51L164.66 384.46L162.76 384.31L160.88 384.08L159.02 383.75L157.17 383.35L155.35 382.85L153.55 382.28L151.78 381.62L150.05 380.88L148.35 380.06L146.69 379.16L145.07 378.19L143.49 377.14L141.97 376.01L140.49 374.82L139.07 373.55L137.71 372.21L136.41 370.8L135.17 369.32L134 367.77L132.9 366.16L131.87 364.49L130.92 362.75L130.05 360.95L129.27 359.09L128.57 357.17L127.96 355.19L127.44 353.15L111.09 281.24L110.77 279.92L110.43 278.62L110.05 277.33L109.65 276.05L109.21 274.79L108.75 273.53L108.26 272.29L107.74 271.07L107.2 269.86L106.62 268.66L106.02 267.48L105.4 266.32L104.74 265.17L104.07 264.04L103.36 262.92L102.63 261.82L101.88 260.74L101.1 259.68L100.29 258.63L99.47 257.61L98.62 256.6L97.74 255.62L96.85 254.65L95.93 253.71L94.99 252.78L94.02 251.88L93.04 251L92.03 250.14L91.01 249.31L89.96 248.49L88.89 247.71L87.81 246.94L86.7 246.2L85.58 245.49L84.44 244.8L83.27 244.13L82.1 243.49L80.9 242.88L79.68 242.3L78.45 241.74L50.03 229.27L49.35 228.97L48.69 228.65L48.03 228.31L47.38 227.97L46.74 227.61L46.11 227.23L45.5 226.85L44.88 226.45L44.28 226.03L43.69 225.61L43.11 225.17L42.54 224.72L41.99 224.26L41.44 223.79L40.9 223.3L40.37 222.8L39.86 222.3L39.35 221.78L38.86 221.25L38.38 220.71L37.91 220.16L37.46 219.6L37.01 219.03L36.58 218.44L36.16 217.85L35.75 217.25L35.36 216.65L34.98 216.03L34.61 215.4L34.26 214.77L33.92 214.12L33.6 213.47L33.28 212.81L32.99 212.15L32.7 211.47L32.44 210.79L32.18 210.1L31.94 209.4L31.72 208.7L31.51 207.99L26.77 191.18L26.48 190.12L26.2 189.06L25.93 187.99L25.67 186.93L25.42 185.86L25.19 184.79L24.96 183.72L24.75 182.65L24.54 181.57L24.35 180.5L24.17 179.42L24 178.34L23.84 177.26L23.7 176.17L23.56 175.09L23.43 174.01L23.32 172.92L23.22 171.83L23.13 170.74L23.05 169.65L22.98 168.56L22.92 167.47L22.87 166.38L22.84 165.29L22.81 164.2L22.8 163.11L22.8 162.01L22.81 160.92L22.83 159.83L22.86 158.74L22.91 157.64L22.96 156.55L23.03 155.46L23.1 154.37L23.19 153.27L23.29 152.18L23.4 151.09L23.53 150L23.66 148.91L23.81 147.83L27.25 123L27.25 114.45L27.24 112.18L27.21 109.91L27.15 107.65L27.08 105.38L26.98 103.12L26.86 100.85L26.72 98.59L26.56 96.33L26.38 94.08L26.18 91.82L25.95 89.57L25.71 87.32L25.44 85.08L25.15 82.83L24.85 80.59L24.52 78.36L24.16 76.12L23.79 73.89L23.4 71.67L22.98 69.45L22.55 67.23L22.09 65.01L21.62 62.8L21.12 60.6L20.6 58.4L20.06 56.2L19.5 54.01L18.92 51.82L18.32 49.64L17.7 47.47L17.05 45.3L16.39 43.13L15.7 40.98L15 38.82L14.27 36.68L13.53 34.54L12.76 32.4L11.97 30.28L11.17 28.15L10.34 26.04L0 0L500 0L500 1.57L499.99 3.49ZM63.1 440.42L63.22 440.43L63.34 440.46L63.46 440.5L63.58 440.55L63.7 440.6L63.82 440.67L63.93 440.75L64.04 440.84L64.15 440.94L81.55 458.29L81.57 458.23L81.93 457.47L82.33 456.72L82.75 456.01L83.19 455.31L83.67 454.64L84.16 454L84.69 453.39L85.23 452.8L85.8 452.23L86.39 451.7L86.99 451.19L87.62 450.71L88.27 450.25L88.93 449.83L89.6 449.43L90.3 449.07L91 448.73L91.72 448.42L92.45 448.14L93.19 447.89L93.94 447.67L94.7 447.48L95.46 447.33L96.24 447.2L97.01 447.11L97.8 447.05L98.58 447.02L99.37 447.03L100.16 447.06L100.95 447.13L101.74 447.24L102.52 447.38L103.31 447.55L104.09 447.76L104.86 448L105.63 448.28L106.4 448.59L107.15 448.94L107.9 449.33L108.63 449.75L109.61 450.34L110.04 450.61L110.46 450.87L110.89 451.14L111.3 451.42L111.72 451.7L112.13 451.99L112.53 452.28L112.94 452.57L113.33 452.87L113.73 453.18L114.12 453.49L114.51 453.8L114.89 454.12L115.27 454.44L115.65 454.77L116.02 455.1L116.39 455.43L116.76 455.77L117.12 456.12L117.47 456.46L117.82 456.82L118.17 457.17L118.52 457.53L118.86 457.9L119.19 458.27L119.52 458.64L119.85 459.02L120.17 459.4L120.49 459.78L120.8 460.17L121.11 460.56L121.41 460.96L121.71 461.36L122.01 461.76L122.3 462.17L122.58 462.58L122.87 462.99L123.14 463.41L123.41 463.83L123.68 464.26L133.11 479.47L133.28 479.77L133.44 480.08L133.58 480.39L133.7 480.7L133.8 481.01L133.88 481.33L133.95 481.65L134 481.96L134.03 482.28L134.04 482.6L134.04 482.91L134.03 483.23L133.99 483.54L133.94 483.85L133.88 484.15L133.8 484.45L133.7 484.75L133.6 485.04L133.47 485.33L133.34 485.61L133.19 485.88L133.03 486.14L132.85 486.4L132.66 486.64L132.46 486.88L132.25 487.11L132.02 487.33L131.79 487.53L131.54 487.73L131.28 487.91L131.02 488.08L130.74 488.24L130.45 488.38L130.15 488.51L129.85 488.62L129.53 488.72L129.2 488.8L128.87 488.87L128.53 488.91L128.18 488.94L87.15 491.31L87.03 491.26L86.92 491.2L86.8 491.15L86.7 491.09L86.59 491.04L86.49 490.99L86.38 490.94L86.29 490.89L86.19 490.85L86.1 490.8L86.01 490.76L85.92 490.71L85.84 490.67L85.76 490.63L85.68 490.59L85.61 490.55L85.54 490.51L85.47 490.48L85.4 490.44L85.34 490.41L85.28 490.38L85.22 490.35L85.16 490.32L85.11 490.29L85.06 490.26L85.02 490.24L84.97 490.21L84.93 490.19L84.89 490.17L84.86 490.14L84.83 490.12L84.8 490.11L84.77 490.09L84.75 490.07L84.73 490.06L84.71 490.04L84.69 490.03L84.68 490.02L84.67 490.01L84.67 490L84.65 490L84.61 489.99L84.55 489.97L84.46 489.95L84.35 489.91L84.21 489.87L84.06 489.83L83.88 489.77L83.69 489.71L83.47 489.63L83.24 489.55L83 489.46L82.74 489.36L82.46 489.25L82.18 489.12L81.88 488.99L81.57 488.85L81.25 488.7L80.93 488.53L80.59 488.36L80.25 488.17L79.91 487.97L79.56 487.75L79.21 487.53L78.85 487.29L78.5 487.04L78.14 486.78L77.79 486.5L77.43 486.21L77.08 485.9L76.74 485.58L76.4 485.24L76.07 484.89L75.74 484.53L75.42 484.15L75.11 483.75L74.82 483.34L74.53 482.91L74.26 482.46L74 482L73.84 481.67L73.72 481.34L73.62 480.99L73.54 480.63L73.49 480.26L73.46 479.88L73.46 479.49L73.47 479.09L73.51 478.68L73.56 478.27L73.62 477.85L73.71 477.43L73.81 476.99L73.92 476.56L74.04 476.12L74.17 475.68L74.31 475.23L74.45 474.78L74.6 474.33L74.76 473.88L74.92 473.43L75.08 472.97L75.24 472.52L75.4 472.07L75.56 471.62L75.72 471.17L75.87 470.73L76.01 470.29L76.15 469.86L76.28 469.43L76.4 469L76.51 468.58L76.6 468.17L76.68 467.76L76.74 467.36L76.79 466.97L76.82 466.59L76.83 466.22L76.82 465.86L76.79 465.51L76.66 464.73L76.49 463.94L76.28 463.14L76.03 462.35L75.74 461.55L75.41 460.75L75.05 459.96L74.66 459.17L74.25 458.38L73.81 457.6L73.34 456.83L72.86 456.07L72.36 455.31L71.84 454.57L71.31 453.83L70.77 453.11L70.22 452.41L69.67 451.72L69.12 451.05L68.56 450.39L68.01 449.76L67.46 449.15L66.92 448.56L66.39 447.99L65.88 447.45L65.37 446.93L64.89 446.44L64.43 445.98L63.98 445.55L63.57 445.15L63.18 444.78L62.82 444.44L62.5 444.14L62.21 443.88L61.95 443.65L61.74 443.46L61.57 443.31L61.45 443.2L61.37 443.14L61.34 443.12L61.29 443L61.22 442.86L61.18 442.72L61.14 442.59L61.11 442.46L61.09 442.33L61.09 442.2L61.09 442.07L61.1 441.95L61.13 441.83L61.16 441.71L61.2 441.59L61.24 441.48L61.3 441.38L61.36 441.27L61.42 441.17L61.5 441.08L61.58 440.99L61.66 440.91L61.75 440.83L61.85 440.75L61.95 440.69L62.05 440.63L62.16 440.57L62.27 440.53L62.38 440.49L62.5 440.45L62.62 440.43L62.74 440.41L62.86 440.41L62.98 440.41L63.1 440.42ZM45.64 326.35L46.6 326.5L47.57 326.71L48.55 326.99L64.09 331.86L65.04 332.17L65.98 332.48L66.91 332.82L67.84 333.16L68.76 333.52L69.67 333.89L70.58 334.27L71.48 334.67L72.38 335.08L73.27 335.5L74.15 335.94L75.02 336.39L75.89 336.85L76.75 337.32L77.61 337.81L78.45 338.31L79.29 338.82L80.12 339.34L80.94 339.88L81.76 340.43L82.56 340.98L83.36 341.56L84.15 342.14L84.94 342.73L85.71 343.34L86.47 343.96L87.23 344.58L87.97 345.22L88.71 345.88L89.44 346.54L90.16 347.21L90.87 347.89L91.56 348.59L92.25 349.3L92.93 350.01L93.6 350.74L94.26 351.48L94.91 352.22L95.55 352.98L96.17 353.75L116.33 378.8L116.8 379.42L117.24 380.06L117.64 380.7L118 381.36L118.33 382.03L118.62 382.7L118.87 383.39L119.09 384.08L119.28 384.78L119.43 385.48L119.55 386.19L119.63 386.89L119.68 387.6L119.69 388.31L119.68 389.02L119.63 389.72L119.55 390.42L119.43 391.11L119.29 391.8L119.11 392.48L118.91 393.15L118.67 393.82L118.4 394.47L118.11 395.11L117.78 395.73L117.42 396.34L117.04 396.94L116.63 397.51L116.19 398.07L115.72 398.61L115.22 399.13L114.7 399.63L114.15 400.1L113.57 400.56L112.97 400.98L112.34 401.38L111.69 401.75L111.01 402.09L110.31 402.4L109.58 402.68L108.69 403L107.79 403L106.9 403L106.02 402.98L105.13 402.96L104.25 402.93L103.36 402.88L102.49 402.83L101.61 402.77L100.74 402.7L99.87 402.62L99 402.53L98.13 402.43L97.27 402.32L96.4 402.2L95.55 402.07L94.69 401.93L93.83 401.78L92.98 401.62L92.13 401.46L91.29 401.28L90.44 401.1L89.6 400.9L88.76 400.7L87.92 400.48L87.09 400.26L86.26 400.02L85.43 399.78L84.6 399.53L83.78 399.27L82.95 398.99L82.13 398.71L81.32 398.42L80.5 398.12L79.69 397.81L78.88 397.49L78.07 397.16L77.27 396.83L76.46 396.48L75.66 396.12L74.86 395.75L74.55 395.61L74.24 395.47L73.94 395.33L73.63 395.19L73.33 395.06L73.04 394.93L72.74 394.81L72.45 394.68L72.16 394.56L71.87 394.45L71.58 394.33L71.3 394.22L71.02 394.11L70.75 394.01L70.47 393.9L70.2 393.81L69.93 393.71L69.67 393.62L69.4 393.53L69.14 393.44L68.89 393.35L68.63 393.27L68.38 393.19L68.13 393.12L67.88 393.05L67.64 392.98L67.4 392.91L67.16 392.85L66.92 392.79L66.69 392.73L66.46 392.68L66.23 392.63L66 392.58L65.78 392.53L65.56 392.49L65.34 392.45L65.13 392.42L64.92 392.38L64.71 392.35L64.5 392.33L63.74 392.22L62.97 392.1L62.22 391.95L61.47 391.79L60.72 391.61L59.99 391.41L59.26 391.19L58.54 390.95L57.82 390.69L57.12 390.42L56.42 390.13L55.73 389.82L55.05 389.49L54.38 389.15L53.71 388.79L53.06 388.42L52.42 388.03L51.79 387.62L51.17 387.19L50.56 386.76L49.96 386.3L49.38 385.83L48.8 385.35L48.24 384.85L47.69 384.33L47.15 383.81L46.63 383.26L46.12 382.71L45.62 382.14L45.14 381.56L44.67 380.96L44.22 380.35L43.78 379.73L43.36 379.1L42.95 378.45L42.56 377.8L42.18 377.13L41.82 376.45L41.48 375.75L41.16 375.05L29.33 348.57L28.95 347.63L28.63 346.69L28.37 345.76L28.17 344.82L28.03 343.89L27.94 342.97L27.92 342.05L27.94 341.14L28.02 340.25L28.16 339.36L28.34 338.49L28.57 337.64L28.84 336.8L29.17 335.98L29.53 335.18L29.94 334.41L30.39 333.66L30.88 332.93L31.4 332.24L31.97 331.57L32.57 330.93L33.2 330.33L33.86 329.76L34.55 329.23L35.27 328.73L36.02 328.28L36.8 327.86L37.6 327.49L38.42 327.16L39.27 326.88L40.13 326.65L41.01 326.47L41.91 326.33L42.82 326.25L43.75 326.23L44.69 326.26L45.64 326.35Z"></path>
		
		<path class="borders" d="M30.22 117.4L49.12 117.4L137 17.04L128.5 0 M306 473.5L327 463.5L346 454.5L365 444.5L347 431.5L350 411.5L354 391.5L371 379.5L396 381.5 M360 387.5L351.88 356.96L344.78 336.94L340.72 315.88L321.43 308.5L304.18 320.09L283.88 319.04L265.61 309.56L245.31 312.72L234.15 331.68L224 350.64 M107.38 268.5L107.38 250.28L108.67 232.93L128 219.91L117.69 203.43L111.25 186.07L103.52 168.72L99.65 151.36L102.23 134.01L107.38 116.65L86.77 105.37L61 104.5 M120 203.05L140 201.16L160 197.39L180 196.45L200 195.5L209 212.48L225 224.74L239 238.89L251 253.98L257 272.84L247 292.64L246 311.5 M203 194.5L218 178.5L234 165.5L247 149.5L249 129.5L253 109.5L258 89.5L251 70.5L287 34.5L279 1.5 M333 312.5L361 301.5L379 292.5L381 272.5L380 251.5L388 232.5L406 221.5L424 212.5L444 207.5L464 205.5L483 212.5 M251 128.5L272 138.5L290 149.5L307 161.5L324 173.5L344 168.5L363 176.5L370 195.5L389 204.5L412 215.5 M296 151.5L304 127.5L308 107.5L319 90.5L328 70.5L328 48.5L315 32.5L298 21.5L280 12.5 M327 70.5L351 74.5L374 80.5L397 86.5L417 89.5L435 98.5L448 114.5L463 129.5L482 137.5"></path>

		<text class="textcontainer" x="197.38" y="383.25" transform="matrix(1 0 0 1 184.12365535848338 -260.2453703266482)" xml:space="preserve">
			<tspan class="text" x="197.38" dy="0em">ChaiBeCa</tspan>
		</text>
		<text class="textcontainer" x="203.75" y="469.25" transform="matrix(0.9999999976325505 -0.00006881060427679082 0.00006881060427679082 0.9999999976325505 220.2167735618411 -177.23134902284448)" xml:space="preserve">
			<tspan class="text" x="203.75" dy="0em">Gumbo</tspan>
		</text>
		<text class="textcontainer" x="207.28" y="469.25" transform="matrix(0.9999999976325505 -0.00006881060427679082 0.00006881060427679082 0.9999999976325505 -162.78520093310962 -436.1130300575862)" xml:space="preserve">
			<tspan class="text" x="220.28" dy="0em">Sandwich</tspan>
			<tspan class="text" x="220.28" dy="1em">Village</tspan>
		</text>
		<text class="textcontainer" x="203.75" y="469.25" transform="matrix(1 0 0 1 -136.97049612833456 -114.47178542098771)" xml:space="preserve">
			<tspan class="text" x="210.75" dy="0em">Corny</tspan>
			<tspan class="text" x="210.75" dy="1em">Island</tspan>
		</text>
		<text class="textcontainer" x="203.75" y="469.25" transform="matrix(1 0 0 1 -142.42924528301882 -298.5661250436293)" xml:space="preserve">
			<tspan class="text" x="203.75" dy="0em">Jones</tspan>
			<tspan class="text" x="203.75" dy="1em">Peach</tspan>
		</text>
		<text class="textcontainer" x="203.75" y="469.25" transform="matrix(1 0 0 1 97.25000000000017 -246.24537032664813)" xml:space="preserve">
			<tspan class="text" x="203.75" dy="0em">Flatbread</tspan>
			<tspan class="text" x="203.75" dy="1em">District</tspan>
		</text>
		<text class="textcontainer" x="203.75" y="469.25" transform="matrix(1 0 0 1 88.25000000000017 -414.24537032664824)" xml:space="preserve">
			<tspan class="text" x="203.75" dy="0em">Onion</tspan>
			<tspan class="text" x="203.75" dy="1em">Square</tspan>
		</text>
		<text class="textcontainer" x="207.28" y="469.25" transform="matrix(0.9999999976325505 -0.00006881060427679082 0.00006881060427679082 0.9999999976325505 171.21479906689052 -58.11303005758599)" xml:space="preserve">
			<tspan class="text" x="207.28" dy="0em">Buttery</tspan>
			<tspan class="text" x="207.28" dy="1em">Park</tspan>
		</text>
		<text class="textcontainer" x="207.28" y="469.25" transform="matrix(0.9999999976325503 -0.00006881060427679746 0.0000688106042768044 0.9999999976325503 113.01388692964687 -104.11638285905447)" xml:space="preserve">
			<tspan class="text" x="207.28" dy="0em">South</tspan>
			<tspan class="text" x="207.28" dy="1em">Street</tspan>
			<tspan class="text" x="207.28" dy="1em">Peaport</tspan>
		</text>
		<text class="textcontainer" x="207.28" y="469.25" transform="matrix(0.9999999976325503 -0.00006881060427679746 0.0000688106042768044 0.9999999976325503 -36.98611307035324 -196.11638285905448)" xml:space="preserve">
			<tspan class="text" x="207.28" dy="0em">Pienancial</tspan>
			<tspan class="text" x="207.28" dy="1em">District</tspan>
		</text>
		<text class="textcontainer" x="197.25" y="469.25" transform="matrix(1 0 0 1 -13.749999999999886 -406.2453703266483)" xml:space="preserve">
			<tspan class="text" x="197.25" dy="0em">Thyme</tspan>
			<tspan class="text" x="197.25" dy="1em">Square</tspan>
		</text>
		<text class="textcontainer" x="197.25" y="469.25" transform="matrix(1 0 0 1 188.25000000000023 -451.2453703266484)" xml:space="preserve">
			<tspan class="text" x="197.25" dy="0em">Carrot</tspan>
			<tspan class="text" x="197.25" dy="1em">Gardens</tspan>
		</text>
		<text class="textcontainer" x="203.75" y="469.25" transform="matrix(1 0 0 1 -103.74999999999991 -10.245370326648015)" xml:space="preserve">
			<tspan class="text" x="210.75" dy="0em">Chili</tspan>
			<tspan class="text" x="210.75" dy="1em">Island</tspan>
		</text>
	</g>
	<g id="star">
		<path class="star" d="M12.94 6.58L19.52 7.64L14.76 12.76L15.89 20L10 16.58L4.11 20L5.24 12.76L0.48 7.64L7.06 6.58L10 0L12.94 6.58Z"></path>
	</g>
	<g id="pins">
	</g>
</svg>